<?xml version="1.0" encoding="utf-8"?>
<!-- Generator: Adobe Illustrator 24.0.2, SVG Export Plug-In . SVG Version: 6.00 Build 0)  -->
<svg version="1.1" id="Layer_3" xmlns="http://www.w3.org/2000/svg" xmlns:xlink="http://www.w3.org/1999/xlink" x="0px" y="0px"
	 viewBox="0 0 512 512" style="enable-background:new 0 0 512 512;" xml:space="preserve">
<style type="text/css">
	.st0{fill:#FFFFFF;}
</style>
<g>
	<path class="st0" d="M472,8H40C22.4,8,8,22.4,8,40v304c0,17.6,14.4,32,32,32h152v64h-16c-17.6,0-32,14.4-32,32v24c0,4.4,3.6,8,8,8
		h208c4.4,0,8-3.6,8-8v-24c0-17.6-14.4-32-32-32h-16v-64h152c17.6,0,32-14.4,32-32V40C504,22.4,489.6,8,472,8z M352,472v16H160v-16
		c0-8.8,7.2-16,16-16h160C344.8,456,352,463.2,352,472z M304,440h-96v-64h96V440z M488,344c0,8.8-7.2,16-16,16H40
		c-8.8,0-16-7.2-16-16V40c0-8.8,7.2-16,16-16h432c8.8,0,16,7.2,16,16V344z"/>
	<path class="st0" d="M464,40H48c-4.4,0-8,3.6-8,8v256c0,4.4,3.6,8,8,8h416c4.4,0,8-3.6,8-8V48C472,43.6,468.4,40,464,40z M456,296
		H56V56h400V296z"/>
	<path class="st0" d="M456,328h16v16h-16V328z"/>
	<path class="st0" d="M424,328h16v16h-16V328z"/>
	<path class="st0" d="M80,168h80c4.4,0,8-3.6,8-8V80c0-4.4-3.6-8-8-8H80c-4.4,0-8,3.6-8,8v80C72,164.4,75.6,168,80,168z M88,152v-32
		h64v32H88z M152,88v16H88V88H152z"/>
	<path class="st0" d="M192,168h80c4.4,0,8-3.6,8-8V80c0-4.4-3.6-8-8-8h-80c-4.4,0-8,3.6-8,8v80C184,164.4,187.6,168,192,168z
		 M200,152v-32h64v32H200z M264,88v16h-64V88H264z"/>
	<path class="st0" d="M304,168h48v-16h-40v-32h24v-16h-24V88h16V72h-24c-4.4,0-8,3.6-8,8v80C296,164.4,299.6,168,304,168z"/>
	<path class="st0" d="M80,280h80c4.4,0,8-3.6,8-8v-80c0-4.4-3.6-8-8-8H80c-4.4,0-8,3.6-8,8v80C72,276.4,75.6,280,80,280z M88,264
		v-32h64v32H88z M152,200v16H88v-16H152z"/>
	<path class="st0" d="M192,280h80c4.4,0,8-3.6,8-8v-80c0-4.4-3.6-8-8-8h-80c-4.4,0-8,3.6-8,8v80C184,276.4,187.6,280,192,280z
		 M200,264v-32h64v32H200z M264,200v16h-64v-16H264z"/>
	<path class="st0" d="M304,280h80c4.4,0,8-3.6,8-8v-80c0-4.4-3.6-8-8-8h-80c-4.4,0-8,3.6-8,8v80C296,276.4,299.6,280,304,280z
		 M312,264v-32h64v32H312z M376,200v16h-64v-16H376z"/>
	<path class="st0" d="M368.3,162.3c1,3.3,3.9,5.5,7.3,5.7c0.1,0,0.2,0,0.4,0c3.3,0,6.2-2,7.4-5l14.7-36.8l36.8-14.7
		c3.2-1.3,5.2-4.4,5-7.8s-2.4-6.3-5.7-7.3l-80-24c-2.8-0.8-5.9-0.1-8,2s-2.8,5.1-2,8L368.3,162.3z M407.8,105.1l-18.7,7.5
		c-2,0.8-3.6,2.4-4.5,4.5l-7.5,18.7l-13.2-43.8L407.8,105.1z"/>
</g>
</svg>
