<?xml version="1.0" encoding="utf-8"?>
<!-- Generator: Adobe Illustrator 24.0.2, SVG Export Plug-In . SVG Version: 6.00 Build 0)  -->
<svg version="1.1" id="Capa_1" xmlns="http://www.w3.org/2000/svg" xmlns:xlink="http://www.w3.org/1999/xlink" x="0px" y="0px"
	 viewBox="0 0 480 480" style="enable-background:new 0 0 480 480;" xml:space="preserve">
<style type="text/css">
	.st0{fill:#FFFFFF;}
</style>
<path class="st0" d="M352,200h-58.8l-12.6-12.6c0.5-1.1,0.9-2.2,1.4-3.4h38v-64h-38c-0.5-1.2-0.9-2.3-1.4-3.4l26.9-26.9l-45.2-45.2
	l-26.9,26.9c-1.1-0.5-2.2-0.9-3.4-1.4V32h-64v38c-1.2,0.5-2.3,0.9-3.4,1.4l-26.9-26.9L92.5,89.8l26.9,26.9c-0.5,1.1-0.9,2.2-1.4,3.4
	H80v64h38c0.5,1.2,0.9,2.3,1.4,3.4L106.8,200H48c-13.3,0-24,10.7-24,24v16c0,11.8,8.7,21.8,20.3,23.6L168,387.3V472
	c0,2.9,1.6,5.7,4.2,7.1s5.8,1.2,8.2-0.4l48-32c2.2-1.5,3.6-4,3.6-6.7v-52.7l123.7-123.7c11.7-1.8,20.3-11.8,20.3-23.6v-16
	C376,210.7,365.3,200,352,200z M136.1,185.1c-2-3.7-3.6-7.6-4.8-11.6l-1.8-5.6H96v-32h33.5l1.8-5.6c1.2-4,2.9-7.9,4.8-11.6l2.9-5.3
	l-23.9-23.9l22.6-22.6L161.6,91l5.3-2.9c3.7-2,7.6-3.6,11.6-4.8l5.6-1.8V48h32v33.5l5.6,1.8c4,1.2,7.9,2.8,11.6,4.8l5.3,2.9
	l23.9-23.9l22.6,22.6L261,113.6l2.9,5.3c2,3.7,3.6,7.6,4.8,11.6l1.8,5.6H304v32h-33.5l-1.8,5.6c-1.2,4-2.9,7.9-4.8,11.6l-2.9,5.3
	l9.6,9.6H129.4l9.6-9.6L136.1,185.1z M218.3,378.3c-1.5,1.5-2.3,3.5-2.3,5.7v51.7L184,457v-73c0-2.1-0.8-4.2-2.3-5.7L67.3,264h265.4
	L218.3,378.3z M360,240c0,4.4-3.6,8-8,8H48c-4.4,0-8-3.6-8-8v-16c0-4.4,3.6-8,8-8h304c4.4,0,8,3.6,8,8V240z"/>
<path class="st0" d="M200,192c22.1,0,40-17.9,40-40s-17.9-40-40-40c-22.1,0-40,17.9-40,40C160,174.1,177.9,192,200,192z M200,128
	c13.3,0,24,10.7,24,24s-10.7,24-24,24s-24-10.7-24-24S186.7,128,200,128z"/>
<path class="st0" d="M480,56h-22l15.6-15.6L439.6,6.4L424,22V0h-48v22L360.4,6.4l-34,33.9L342,56h-22v48h22l-15.6,15.6l34,33.9
	L376,138v22h48v-22l15.6,15.6l33.9-33.9L458,104h22V56z M464,88h-24.8l-1.7,5.7c-0.3,1.1-0.8,2.2-1.3,3.2l-2.7,5.2l17.5,17.5
	l-11.3,11.4l-17.5-17.5l-5.2,2.7c-1,0.6-2.1,1-3.2,1.3l-5.7,1.7V144h-16v-24.8l-5.7-1.7c-1.1-0.3-2.2-0.8-3.2-1.3l-5.2-2.7
	l-17.5,17.5l-11.3-11.3l17.5-17.5l-2.7-5.2c-0.6-1-1-2.1-1.3-3.2l-1.7-5.7H336V72h24.8l1.7-5.7c0.3-1.1,0.8-2.2,1.3-3.2l2.7-5.2
	l-17.5-17.5l11.3-11.3l17.5,17.5l5.2-2.7c1-0.6,2.1-1,3.2-1.3l5.7-1.7V16h16v24.8l5.7,1.7c1.1,0.3,2.2,0.8,3.2,1.3l5.2,2.7
	l17.5-17.5l11.3,11.3l-17.5,17.5l2.7,5.2c0.6,1,1,2.1,1.3,3.2l1.7,5.7H464V88z"/>
<path class="st0" d="M400,56c-13.3,0-24,10.7-24,24s10.7,24,24,24s24-10.7,24-24S413.3,56,400,56z M400,88c-4.4,0-8-3.6-8-8
	s3.6-8,8-8s8,3.6,8,8S404.4,88,400,88z"/>
<path class="st0" d="M40,78.9V96h16V78.9c2.9-0.7,5.6-1.9,8.2-3.4l12.1,12.1l11.3-11.3L75.5,64.2c1.5-2.5,2.7-5.3,3.4-8.2H96V40
	H78.9c-0.7-2.9-1.9-5.6-3.4-8.2l12.1-12.1L76.3,8.4L64.2,20.5c-2.5-1.5-5.3-2.7-8.2-3.4V0H40v17.1c-2.9,0.7-5.6,1.9-8.2,3.4
	L19.7,8.4L8.4,19.7l12.1,12.1c-1.5,2.5-2.7,5.3-3.4,8.2H0v16h17.1c0.7,2.9,1.9,5.6,3.4,8.2L8.4,76.3l11.3,11.3l12.1-12.1
	C34.4,77,37.1,78.1,40,78.9z M48,32c8.8,0,16,7.2,16,16s-7.2,16-16,16s-16-7.2-16-16S39.2,32,48,32z"/>
</svg>
